<?xml version="1.0" encoding="UTF-8"?>
<!DOCTYPE svg PUBLIC "-//W3C//DTD SVG 1.1//EN" "http://www.w3.org/Graphics/SVG/1.1/DTD/svg11.dtd">
<!-- Creator: CorelDRAW 2020 (64-Bit) -->
<svg xmlns="http://www.w3.org/2000/svg" xml:space="preserve" width="9.38333in" height="3.11666in" version="1.1" style="shape-rendering:geometricPrecision; text-rendering:geometricPrecision; image-rendering:optimizeQuality; fill-rule:evenodd; clip-rule:evenodd"
viewBox="0 0 9383.33 3116.66"
 xmlns:xlink="http://www.w3.org/1999/xlink"
 xmlns:xodm="http://www.corel.com/coreldraw/odm/2003">
 <defs>
  <style type="text/css">
   <![CDATA[
    .fil0 {fill:#34679C}
   ]]>
  </style>
 </defs>
 <g id="Layer_x0020_1">
  <metadata id="CorelCorpID_0Corel-Layer"/>
  <path class="fil0" d="M548.93 2419.13c-110.22,-0.13 -211.5,-18.37 -303.83,-54.7 -92.34,-36.34 -172.06,-84.98 -239.17,-145.95l211.32 -251.69c62.91,53.62 125.85,93.06 188.81,118.33 62.95,25.27 123.82,37.95 182.61,38.02 24.14,0.03 43.57,-4.15 58.28,-12.53 14.7,-8.38 22.07,-20.44 22.09,-36.19 0.01,-8.4 -1.82,-16.01 -5.48,-22.84 -3.67,-6.83 -11.8,-13.66 -24.39,-20.5 -12.59,-6.84 -30.95,-15.27 -55.08,-25.27 -24.13,-9.99 -56.13,-22.37 -96.01,-37.12 -51.42,-18.96 -96,-38.17 -133.77,-57.64 -37.77,-19.46 -68.98,-41.29 -93.61,-65.46 -24.65,-24.17 -42.98,-51.22 -55.01,-81.16 -12.04,-29.93 -18.03,-65.37 -17.98,-106.31 0.06,-53.54 11.93,-103.65 35.61,-150.34 23.67,-46.69 57.06,-87.32 100.14,-121.91 43.08,-34.59 95.08,-62.09 155.99,-82.48 60.91,-20.4 129.16,-30.54 204.75,-30.46 98.67,0.12 190.25,14.94 274.72,44.43 84.47,29.5 156.59,70 216.37,121.51l-211.31 251.69c-41.95,-33.64 -90.73,-62.57 -146.34,-86.79 -55.61,-24.21 -112.81,-36.35 -171.59,-36.43 -24.15,-0.02 -43.57,3.36 -58.28,10.16 -14.71,6.81 -22.07,18.08 -22.09,33.83 -0.01,8.39 2.08,15.48 6.28,21.26 4.19,5.78 12.58,11.82 25.17,18.14 12.59,6.32 30.43,13.95 53.51,22.9 23.08,8.95 53.52,20.27 91.3,33.97 47.22,17.9 89.71,36.33 127.47,55.28 37.77,18.94 70.02,40.76 96.76,65.47 26.74,24.7 47.17,53.06 61.31,85.1 14.13,32.04 21.18,69.05 21.13,111.04 -0.07,55.63 -11.42,107.59 -34.05,155.84 -22.63,48.27 -55.22,89.95 -97.79,125.07 -42.56,35.11 -94.82,62.87 -156.78,83.27 -61.96,20.39 -132.31,30.54 -211.04,30.44zm71.25 -1590.2c45.15,0.05 80.33,-8.83 105.54,-26.64 25.22,-17.81 37.84,-40.37 37.88,-67.66 0.06,-46.19 -39.28,-69.33 -118.02,-69.43l-159.04 -0.19 -44.29 163.71 177.93 0.22zm-314.16 1833.09c40.38,0.05 71.72,8.94 94.04,26.68 22.31,17.73 33.46,42.82 33.42,75.25 -0.04,29.45 -6.6,54.68 -19.7,75.67 -13.09,21 -31.89,37.03 -56.4,48.08 -24.5,11.07 -53.47,16.57 -86.89,16.53l-92.83 -0.11 -20.98 105.21 -49.64 -0.06 69.93 -347.4 129.06 0.15zm-34.49 199.02c35.74,0.04 63.39,-7.87 82.92,-23.72 19.56,-15.87 29.34,-38.85 29.38,-68.97 0.02,-20.52 -7.07,-36.17 -21.29,-46.94 -14.22,-10.77 -34.56,-16.17 -61.04,-16.2l-83.4 -0.1 -31.46 155.83 84.89 0.11zm268.65 -75.13c11.6,-14.54 25.85,-25.12 42.73,-31.71 16.88,-6.61 37.4,-9.89 61.56,-9.86l-8.98 46.15c-2.98,-0.33 -7.12,-0.5 -12.42,-0.5 -54.61,-0.06 -87.73,29.34 -99.39,88.24l-26.48 131.51 -47.65 -0.06 52.45 -263.03 45.67 0.06 -7.49 39.2zm230.05 227.15c-24.82,-0.03 -46.49,-4.78 -65.02,-14.23 -18.52,-9.46 -32.9,-22.8 -43.13,-40.02 -10.24,-17.21 -15.34,-37.07 -15.31,-59.58 0.04,-29.46 6.69,-55.92 19.95,-79.41 13.27,-23.48 31.66,-41.9 55.17,-55.28 23.52,-13.37 50,-20.04 79.46,-20 24.82,0.03 46.49,4.7 65.01,13.98 18.52,9.29 32.81,22.46 42.89,39.51 10.07,17.06 15.09,37 15.06,59.83 -0.04,29.46 -6.68,56.01 -19.94,79.65 -13.27,23.64 -31.58,42.15 -54.93,55.53 -23.35,13.37 -49.75,20.04 -79.2,20.01zm3.03 -41.7c19.52,0.02 37.15,-4.67 52.88,-14.08 15.73,-9.41 28,-22.56 36.79,-39.42 8.79,-16.87 13.2,-36.06 13.22,-57.57 0.03,-23.49 -6.73,-41.7 -20.28,-54.63 -13.56,-12.93 -32.91,-19.4 -58.06,-19.43 -19.52,-0.03 -37.07,4.68 -52.63,14.08 -15.57,9.42 -27.82,22.56 -36.78,39.42 -8.96,16.87 -13.46,36.06 -13.48,57.57 -0.03,23.16 6.81,41.29 20.54,54.38 13.72,13.09 32.99,19.65 57.81,19.68zm510.71 -328.98l-73.92 368.24 -45.67 -0.06 6.5 -32.26c-11.93,11.24 -25.76,19.92 -41.49,26.01 -15.72,6.11 -32.85,9.15 -51.39,9.13 -22.5,-0.03 -42.52,-4.61 -60.06,-13.72 -17.52,-9.13 -31.24,-22.3 -41.15,-39.52 -9.91,-17.22 -14.85,-37.42 -14.82,-60.58 0.04,-29.79 6.52,-56.42 19.46,-79.9 12.94,-23.48 30.74,-41.83 53.44,-55.04 22.69,-13.2 48.09,-19.8 76.22,-19.76 22.5,0.03 41.94,4.11 58.31,12.24 16.37,8.13 28.69,19.97 36.94,35.54l29.98 -150.38 47.65 0.06zm-195.49 329.37c19.52,0.02 37.15,-4.67 52.88,-14.08 15.73,-9.41 28,-22.56 36.79,-39.42 8.79,-16.87 13.19,-36.06 13.22,-57.57 0.03,-23.5 -6.73,-41.7 -20.28,-54.63 -13.56,-12.93 -32.91,-19.41 -58.06,-19.44 -19.52,-0.02 -37.06,4.68 -52.64,14.09 -15.56,9.42 -27.81,22.56 -36.77,39.42 -8.96,16.87 -13.45,36.05 -13.48,57.57 -0.03,23.16 6.81,41.29 20.54,54.37 13.72,13.09 32.99,19.65 57.81,19.68zm510.08 -223.75l-52.44 263.04 -45.67 -0.06 6.49 -33.75c-11.93,12.24 -25.93,21.4 -41.98,27.5 -16.06,6.11 -33.51,9.15 -52.37,9.13 -29.13,-0.04 -52.12,-7.85 -68.98,-23.42 -16.85,-15.58 -25.26,-37.27 -25.23,-65.06 0.01,-9.27 1.01,-19.36 3.01,-30.28l29.47 -147.4 47.66 0.06 -29.48 147.89c-1.65,8.94 -2.49,16.38 -2.5,22.33 -0.02,17.2 5,30.37 15.09,39.48 10.08,9.11 25.06,13.69 44.91,13.71 25.15,0.03 46.09,-7.06 62.83,-21.27 16.72,-14.21 27.92,-35.05 33.57,-62.51l27.98 -139.45 47.65 0.06zm163 266.28c-25.16,-0.03 -47.15,-4.78 -66.01,-14.23 -18.85,-9.46 -33.4,-22.71 -43.63,-39.76 -10.24,-17.06 -15.35,-37 -15.32,-59.83 0.04,-29.46 6.69,-55.93 19.96,-79.41 13.26,-23.48 31.65,-41.91 55.16,-55.28 23.52,-13.37 50.17,-20.04 79.94,-20 51.96,0.06 88.01,19.14 108.15,57.22l-40.24 22.3c-13.87,-25.18 -37.68,-37.79 -71.44,-37.83 -19.52,-0.02 -37.15,4.68 -52.88,14.09 -15.73,9.42 -28.07,22.55 -37.03,39.41 -8.95,16.87 -13.45,36.06 -13.48,57.57 -0.03,23.16 6.82,41.29 20.54,54.37 13.72,13.09 33.15,19.65 58.3,19.68 15.88,0.02 30.69,-3.1 44.44,-9.37 13.74,-6.27 25.09,-15.52 34.04,-27.76l34.72 24.86c-12.27,16.86 -28.67,30.08 -49.2,39.65 -20.53,9.58 -42.54,14.35 -66.04,14.32zm232.92 -86.59c-1,4.97 -1.5,9.6 -1.51,13.89 -0.01,10.59 2.88,18.71 8.66,24.34 5.78,5.63 14.46,8.46 26.05,8.47 13.9,0.02 26.49,-4.11 37.75,-12.36l9.88 36.24c-15.91,10.91 -36.26,16.34 -61.08,16.31 -20.85,-0.02 -37.63,-5.92 -50.37,-17.69 -12.73,-11.76 -19.07,-27.9 -19.05,-48.42 0,-6.95 0.67,-13.57 2.01,-19.86l28.46 -140.94 -44.67 -0.06 7.49 -39.2 45.18 0.06 11.48 -57.57 47.66 0.06 -11.49 57.57 75.45 0.09 -7.99 39.2 -75.45 -0.09 -28.47 139.96zm544.18 -94.64c15.55,5.32 27.62,13.94 36.21,25.86 8.58,11.93 12.87,26.83 12.84,44.7 -0.04,35.08 -13.56,61.94 -40.55,80.62 -27,18.66 -63.82,27.96 -110.48,27.91l-167.29 -0.21 69.93 -347.4 153.89 0.19c35.07,0.04 62.13,6.61 81.13,19.71 19.02,13.1 28.51,32.06 28.48,56.88 -0.03,22.5 -5.92,41.6 -17.7,57.31 -11.76,15.7 -27.24,27.19 -46.45,34.44zm-158.2 -128.26l-22.47 111.17 101.76 0.12c28.13,0.04 50.39,-5.65 66.79,-17.04 16.4,-11.4 24.61,-28.01 24.64,-49.86 0.02,-14.89 -5.84,-25.99 -17.58,-33.28 -11.74,-7.3 -28.7,-10.96 -50.88,-10.99l-102.26 -0.12zm59.74 267.14c31.43,0.04 55.69,-5.81 72.73,-17.54 17.07,-11.72 25.61,-28.51 25.63,-50.35 0.02,-17.21 -6,-29.46 -18.07,-36.76 -12.07,-7.3 -30.19,-10.96 -54.34,-10.99l-116.16 -0.15 -22.98 115.64 113.19 0.14zm483.77 -222.29l-187.01 291.65c-16.91,26.45 -32.98,44.81 -48.22,55.04 -15.23,10.24 -33.27,15.35 -54.13,15.32 -12.91,-0.01 -25.48,-2.1 -37.72,-6.25 -12.25,-4.15 -21.67,-9.87 -28.28,-17.16l24.86 -35.21c11.9,11.93 26.79,17.9 44.65,17.92 11.26,0.01 21.18,-2.95 29.8,-8.9 8.61,-5.94 17.56,-16.02 26.84,-30.24l13.43 -20.83 -63.22 -261.69 47.65 0.06 50.38 210.54 132.8 -210.31 48.15 0.06zm412.91 84.4c14.89,5.98 26.38,14.84 34.47,26.6 8.09,11.76 12.13,26.07 12.11,42.95 -0.04,36.07 -14.31,63.36 -42.8,81.85 -28.48,18.5 -66.38,27.72 -113.7,27.66l-182.19 -0.22 69.93 -347.4 167.78 0.2c37.4,0.05 66.19,6.95 86.35,20.71 20.17,13.76 30.24,33.38 30.21,58.86 -0.02,21.18 -5.59,39.3 -16.7,54.34 -11.1,15.05 -26.26,26.52 -45.46,34.44zm-154.74 -107.92l-16.48 81.89 81.91 0.1c21.19,0.03 37.65,-4.17 49.41,-12.59 11.76,-8.43 17.65,-20.59 17.67,-36.46 0.03,-21.85 -17.01,-32.79 -51.09,-32.83l-81.41 -0.11zm49.85 226.44c22.51,0.03 40.05,-4.26 52.63,-12.85 12.59,-8.59 18.89,-21 18.91,-37.2 0.03,-23.83 -17.33,-35.76 -52.07,-35.81l-97.3 -0.12 -16.98 85.85 94.81 0.12zm327.06 64.93c-26.81,-0.04 -50.38,-5.03 -70.72,-14.98 -20.33,-9.95 -36.04,-23.95 -47.1,-42 -11.07,-18.05 -16.59,-38.99 -16.56,-62.82 0.04,-29.45 7.02,-55.92 20.95,-79.4 13.93,-23.48 33.15,-41.99 57.65,-55.53 24.51,-13.54 52.15,-20.29 82.92,-20.25 27.14,0.03 50.8,5.02 70.98,14.98 20.17,9.95 35.8,23.95 46.86,42 11.06,18.06 16.57,38.99 16.54,62.82 -0.03,29.46 -6.93,55.92 -20.69,79.4 -13.76,23.48 -32.98,42 -57.66,55.53 -24.67,13.54 -52.39,20.29 -83.17,20.25zm5.04 -64.02c14.89,0.01 28.3,-3.7 40.22,-11.13 11.92,-7.43 21.2,-17.76 27.84,-30.98 6.63,-13.23 9.96,-28.46 9.98,-45.67 0.02,-18.2 -5.26,-32.61 -15.84,-43.2 -10.57,-10.61 -25.46,-15.92 -44.65,-15.94 -15.23,-0.02 -28.8,3.69 -40.72,11.13 -11.93,7.43 -21.2,17.76 -27.84,30.99 -6.63,13.23 -9.96,28.44 -9.98,45.66 -0.02,18.2 5.33,32.6 16.08,43.2 10.74,10.61 25.71,15.92 44.91,15.95zm300.54 -174.87c11.61,-12.57 25.6,-21.65 41.98,-27.25 16.39,-5.6 35.67,-8.39 57.85,-8.36l-13.98 71.46c-9.27,-0.67 -15.23,-1.02 -17.87,-1.02 -23.5,-0.03 -42.29,5.74 -56.37,17.3 -14.08,11.56 -23.61,29.59 -28.61,54.07l-25.96 129.04 -77.44 -0.09 53.44 -267 73.46 0.09 -6.49 31.76zm300.37 -35.37c29.79,0.04 53.44,7.92 70.96,23.66 17.52,15.74 26.26,38.18 26.22,67.3 -0.02,10.91 -1.18,21.67 -3.51,32.26l-29.97 147.89 -77.43 -0.09 28.96 -142.93c1.33,-5.63 2,-11.75 2.01,-18.36 0.02,-13.91 -3.77,-24.5 -11.37,-31.78 -7.61,-7.29 -19.02,-10.95 -34.24,-10.96 -19.86,-0.02 -36.33,5.67 -49.41,17.06 -13.09,11.41 -21.96,28.51 -26.62,51.34l-26.97 135.49 -77.44 -0.1 53.44 -267 73.47 0.09 -5.99 28.78c23.85,-21.81 53.16,-32.69 87.9,-32.65zm427.28 118.17c-0.02,12.24 -1.53,25.81 -4.52,40.7l-204.52 -0.25c2.6,36.4 25.58,54.63 68.93,54.69 13.57,0.02 26.56,-2.12 38.97,-6.41 12.42,-4.29 23.27,-10.39 32.54,-18.33l32.2 51.17c-14.9,11.89 -31.96,20.81 -51.16,26.74 -19.2,5.94 -39.39,8.89 -60.57,8.87 -27.47,-0.04 -51.54,-4.95 -72.21,-14.73 -20.67,-9.79 -36.54,-23.79 -47.6,-42 -11.07,-18.22 -16.59,-39.24 -16.56,-63.07 0.04,-29.45 6.77,-56 20.2,-79.65 13.43,-23.65 32.07,-42.15 55.91,-55.52 23.84,-13.38 50.99,-20.04 81.43,-20 25.82,0.03 48.23,4.85 67.25,14.47 19.01,9.62 33.73,23.37 44.13,41.26 10.4,17.89 15.59,38.57 15.56,62.07zm-130.48 -59.74c-18.21,-0.02 -33.6,4.84 -46.19,14.59 -12.59,9.74 -21.54,23.22 -26.86,40.43l132.54 0.16c0.02,-17.2 -5.33,-30.7 -16.08,-40.47 -10.75,-9.78 -25.22,-14.68 -43.42,-14.7zm291.62 217.29c-26.8,-0.04 -50.38,-5.03 -70.72,-14.98 -20.34,-9.95 -36.04,-23.94 -47.1,-42 -11.07,-18.05 -16.59,-38.99 -16.56,-62.82 0.03,-29.46 7.02,-55.92 20.94,-79.39 13.94,-23.49 33.15,-41.99 57.66,-55.53 24.51,-13.54 52.15,-20.29 82.92,-20.25 27.14,0.04 50.8,5.02 70.98,14.98 20.17,9.95 35.79,23.95 46.85,42 11.06,18.05 16.58,38.99 16.55,62.81 -0.04,29.46 -6.93,55.93 -20.69,79.41 -13.76,23.48 -32.98,41.99 -57.65,55.52 -24.67,13.54 -52.39,20.29 -83.17,20.25zm5.05 -64.02c14.89,0.02 28.29,-3.69 40.22,-11.13 11.92,-7.43 21.2,-17.76 27.84,-30.98 6.63,-13.23 9.96,-28.46 9.98,-45.67 0.02,-18.2 -5.26,-32.6 -15.83,-43.2 -10.57,-10.61 -25.46,-15.92 -44.65,-15.95 -15.24,-0.02 -28.8,3.69 -40.73,11.13 -11.92,7.43 -21.2,17.76 -27.83,30.99 -6.63,13.22 -9.96,28.44 -9.98,45.66 -0.02,18.2 5.33,32.59 16.08,43.2 10.74,10.61 25.71,15.93 44.91,15.95zm361.69 -250.74c-11.91,-0.02 -21.27,3.2 -28.06,9.65 -6.8,6.44 -11.52,16.61 -14.19,30.51l-2 9.93 68.01 0.08 -11.98 59.56 -66.03 -0.08 -40.46 201.49 -77.44 -0.09 40.46 -201.49 -41.7 -0.06 11.98 -59.56 41.7 0.05 3 -15.39c6.32,-29.77 19.34,-53.17 39.06,-70.19 19.71,-17.01 45.45,-25.5 77.23,-25.47 11.91,0.02 23.24,1.36 33.99,4.02 10.75,2.67 19.93,6.31 27.54,10.96l-30.35 55.56c-8.28,-6.29 -18.52,-9.45 -30.77,-9.46zm84.46 -56.98l77.44 0.09 -73.93 368.24 -77.44 -0.09 73.92 -368.25zm399.98 101.76l-53.44 267 -73.46 -0.09 4.99 -26.3c-22.2,20.15 -49.52,30.22 -81.94,30.17 -20.85,-0.02 -40.04,-4.85 -57.56,-14.46 -17.53,-9.62 -31.49,-23.46 -41.9,-41.5 -10.4,-18.05 -15.59,-39.32 -15.56,-63.81 0.04,-29.46 6.61,-56.01 19.7,-79.66 13.11,-23.65 30.91,-42.15 53.43,-55.53 22.52,-13.37 47.35,-20.05 74.49,-20.01 41.04,0.05 69.98,13.48 86.82,40.31l6.99 -36.23 77.43 0.09zm-179.94 206.79c15.22,0.02 28.79,-3.69 40.71,-11.13 11.93,-7.43 21.21,-17.76 27.84,-30.98 6.64,-13.23 9.97,-28.46 9.99,-45.67 0.02,-18.2 -5.34,-32.61 -16.08,-43.2 -10.74,-10.61 -25.71,-15.92 -44.91,-15.94 -15.23,-0.02 -28.8,3.69 -40.72,11.13 -11.92,7.43 -21.2,17.75 -27.84,30.98 -6.63,13.23 -9.95,28.45 -9.98,45.67 -0.02,18.19 5.33,32.59 16.08,43.2 10.74,10.61 25.71,15.92 44.91,15.94zm295.28 64.39c-23.16,-0.02 -45.08,-2.62 -65.76,-7.78 -20.67,-5.15 -36.8,-11.87 -48.37,-20.16l29.85 -56.06c11.58,7.62 25.71,13.77 42.43,18.42 16.7,4.66 33.5,6.99 50.37,7.01 17.55,0.02 30.62,-2.19 39.23,-6.65 8.6,-4.46 12.91,-10.83 12.92,-19.1 0.01,-6.61 -3.79,-11.41 -11.39,-14.41 -7.61,-2.99 -19.85,-6.15 -36.72,-9.47 -19.19,-3.66 -34.99,-7.66 -47.39,-11.98 -12.41,-4.31 -23.15,-11.37 -32.24,-21.13 -9.09,-9.78 -13.62,-23.1 -13.6,-39.98 0.04,-29.45 12.39,-52.44 37.07,-68.96 24.67,-16.52 57.04,-24.75 97.07,-24.69 18.54,0.02 36.57,2.03 54.1,6.02 17.54,4 32.42,9.48 44.65,16.43l-27.87 56.56c-21.82,-13.59 -48.13,-20.41 -78.9,-20.45 -16.88,-0.02 -29.7,2.45 -38.48,7.39 -8.78,4.96 -13.17,11.24 -13.18,18.86 -0.01,6.94 3.8,12 11.4,15.15 7.61,3.15 20.35,6.57 38.22,10.22 18.86,3.67 34.32,7.58 46.39,11.73 12.07,4.15 22.58,11.03 31.5,20.64 8.92,9.61 13.37,22.69 13.35,39.23 -0.03,29.78 -12.56,52.77 -37.56,68.96 -25.01,16.18 -57.37,24.25 -97.09,24.2zm375.13 -274.54c29.78,0.04 53.44,8.01 70.96,23.92 17.52,15.9 26.26,38.42 26.22,67.54 -0.01,10.59 -1.18,21.19 -3.51,31.76l-29.97 147.9 -77.43 -0.09 28.96 -142.93c1.33,-5.62 2,-11.75 2.01,-18.36 0.02,-13.91 -3.77,-24.49 -11.37,-31.79 -7.6,-7.29 -19.02,-10.94 -34.24,-10.96 -19.87,-0.02 -36.33,5.67 -49.42,17.06 -13.09,11.41 -21.96,28.52 -26.62,51.34l-26.97 135.49 -77.44 -0.09 73.92 -368.24 77.44 0.09 -24.97 125.56c22.85,-18.83 50.33,-28.22 82.43,-28.19zm427.27 118.17c-0.02,12.25 -1.53,25.81 -4.52,40.7l-204.52 -0.25c2.6,36.4 25.58,54.63 68.93,54.69 13.57,0.01 26.56,-2.13 38.98,-6.41 12.41,-4.3 23.26,-10.4 32.54,-18.34l32.2 51.18c-14.9,11.89 -31.96,20.81 -51.17,26.74 -19.2,5.94 -39.39,8.89 -60.57,8.86 -27.47,-0.03 -51.54,-4.94 -72.21,-14.72 -20.67,-9.79 -36.54,-23.79 -47.6,-42.01 -11.07,-18.22 -16.59,-39.24 -16.56,-63.07 0.04,-29.45 6.78,-56.01 20.21,-79.65 13.43,-23.65 32.06,-42.16 55.91,-55.52 23.84,-13.38 50.99,-20.04 81.43,-20.01 25.82,0.04 48.23,4.86 67.26,14.48 19.01,9.62 33.72,23.37 44.13,41.25 10.41,17.89 15.59,38.57 15.56,62.07zm-130.48 -59.73c-18.2,-0.02 -33.6,4.84 -46.19,14.59 -12.59,9.74 -21.54,23.22 -26.86,40.42l132.54 0.16c0.02,-17.2 -5.33,-30.7 -16.08,-40.47 -10.75,-9.78 -25.22,-14.68 -43.42,-14.7zm272.56 -22c11.6,-12.56 25.59,-21.65 41.98,-27.25 16.39,-5.6 35.67,-8.39 57.84,-8.37l-13.98 71.46c-9.27,-0.67 -15.23,-1.02 -17.88,-1.02 -23.49,-0.03 -42.28,5.74 -56.37,17.31 -14.07,11.56 -23.61,29.58 -28.61,54.07l-25.96 129.04 -77.44 -0.09 53.44 -267 73.47 0.09 -6.49 31.76zm-5946.11 -2343.51c47.24,0.06 81.89,-8.82 103.96,-26.64 22.06,-17.83 33.11,-38.81 33.14,-62.94 0.02,-23.1 -8.87,-39.64 -26.71,-49.64 -17.82,-10 -46.7,-15.02 -86.58,-15.07l-152.74 -0.19 -41.13 154.27 170.06 0.21zm-413.59 -433.55l488.14 0.61c85.03,0.1 154.57,7.28 208.62,21.52 54.05,14.24 97.07,33.46 128.79,57.63 31.72,24.19 53.74,52.03 66.03,83.54 12.29,31.51 18.29,64.07 18.26,97.65 -0.08,67.19 -21.94,126.73 -65.83,178.64 -43.63,51.92 -108.24,88.84 -193.56,110.78 52.21,13.7 94.95,39.22 128.5,76.52 33.28,37.31 50.02,84.31 49.95,141 -0.06,46.19 -9.81,89.74 -29.29,130.65 -19.47,40.92 -50.22,76.58 -92.26,106.96 -42.03,30.4 -96.39,54.21 -163.06,71.45 -66.69,17.24 -147.26,25.8 -241.74,25.69l-599.95 -0.74 297.4 -1101.9zm1361.05 833.1c22.04,0.03 42.78,-5.2 62.22,-15.67 19.43,-10.47 35.99,-24.62 49.65,-42.46 13.67,-17.83 24.46,-38.55 32.36,-62.15 7.9,-23.61 11.87,-48.02 11.9,-73.21 0.05,-36.74 -10.42,-66.68 -31.38,-89.8 -20.97,-23.13 -48.78,-34.7 -83.42,-34.74 -22.05,-0.02 -42.78,5.2 -62.22,15.67 -19.43,10.47 -35.98,24.63 -49.65,42.46 -13.67,17.82 -24.45,38.54 -32.35,62.16 -7.91,23.61 -11.87,48.01 -11.91,73.2 -0.05,36.75 10.42,66.67 31.38,89.8 20.96,23.12 48.78,34.71 83.42,34.75zm-22.41 291.28c-68.23,-0.09 -128.84,-10.39 -181.83,-30.93 -52.99,-20.53 -97.83,-48.93 -134.53,-85.2 -36.69,-36.26 -64.72,-78.81 -84.08,-127.64 -19.36,-48.84 -29.01,-101.07 -28.94,-156.72 0.08,-66.14 13.02,-129.37 38.81,-189.69 25.8,-60.33 61.56,-113.57 107.28,-159.7 45.71,-46.13 100.08,-82.8 163.11,-110.02 63.02,-27.22 131.8,-40.77 206.33,-40.68 67.18,0.08 127.54,10.39 181.04,30.92 53.52,20.54 98.63,48.94 135.32,85.2 36.7,36.27 64.73,78.82 84.09,127.65 19.36,48.84 29,101.08 28.93,156.71 -0.08,66.13 -13.02,129.37 -38.81,189.7 -25.79,60.34 -61.54,113.57 -107.27,159.7 -45.72,46.13 -100.09,82.81 -163.11,110.03 -63.02,27.22 -131.8,40.78 -206.33,40.68zm714.41 -879.35l357.45 0.44 -45.88 173.15c39.96,-58.74 85.69,-105.13 137.17,-139.18 51.48,-34.06 111.86,-49.46 181.15,-46.23l-101.25 379.36 -37.79 -0.04c-85.03,-0.11 -151.46,22.38 -199.28,67.47 -47.81,45.07 -83.86,115.36 -108.12,210.86l-56.95 214.08 -357.44 -0.44 230.96 -859.48zm694.43 0.86l357.44 0.44 -28.48 107.04c28.39,-34.61 64.91,-64.47 109.56,-89.62 44.65,-25.13 93.74,-37.67 147.27,-37.6 78.74,0.1 139.33,23.8 181.79,71.09 42.46,47.29 63.64,111.35 63.54,192.18 -0.06,46.19 -6.94,94.47 -20.66,144.84l-126.55 472.24 -357.44 -0.44 115.48 -428.17c3.16,-11.54 5.54,-23.09 7.12,-34.63 1.59,-11.55 2.39,-21.52 2.4,-29.91 0.03,-23.1 -5.99,-41.47 -18.04,-55.13 -12.05,-13.66 -31.2,-20.51 -57.44,-20.54 -35.7,-0.04 -63.8,11.47 -84.29,34.54 -20.5,23.07 -37.08,58.22 -49.74,105.44l-115.47 428.16 -357.45 -0.44 230.96 -859.48zm1451.4 357.66c4.21,-11.54 6.32,-24.14 6.34,-37.78 0.03,-24.15 -8.08,-45.42 -24.33,-63.81 -16.24,-18.38 -39.07,-27.6 -68.46,-27.64 -27.3,-0.03 -55.91,9.38 -85.85,28.24 -29.94,18.87 -53.34,52.43 -70.2,100.7l242.51 0.3zm-264.74 157.15c2.05,34.64 14.08,62.48 36.11,83.5 22.02,21.03 52.97,31.56 92.87,31.61 29.39,0.04 58.01,-5.7 85.84,-17.21 27.83,-11.51 56.98,-28.8 87.45,-51.85l165.12 181.28c-49.4,44.04 -104.29,78.34 -164.69,102.94 -60.39,24.59 -128.38,36.84 -203.96,36.75 -65.08,-0.08 -123.86,-9.34 -176.32,-27.78 -52.47,-18.44 -96.78,-44.21 -132.97,-77.32 -36.17,-33.11 -63.94,-72.77 -83.3,-118.98 -19.37,-46.21 -29.02,-97.67 -28.95,-154.35 0.09,-65.09 11.98,-129.1 35.68,-192.06 23.69,-62.96 58.14,-118.82 103.34,-167.57 45.21,-48.76 100.11,-88.06 164.7,-117.91 64.6,-29.84 137.84,-44.7 219.72,-44.6 70.33,0.09 129.63,11.18 177.89,33.29 48.26,22.11 87.33,50.76 117.2,85.96 29.88,35.2 51.08,75.12 63.63,119.75 12.55,44.63 18.79,89.52 18.73,134.66 -0.04,28.34 -2.17,56.15 -6.4,83.44 -4.24,27.29 -10.56,53 -18.99,77.13l-552.7 -0.68zm1070.67 76.9c22.04,0.03 42.78,-5.2 62.22,-15.67 19.43,-10.47 35.98,-24.63 49.65,-42.46 13.67,-17.82 24.46,-38.55 32.36,-62.16 7.9,-23.61 11.87,-48.01 11.9,-73.2 0.05,-36.75 -10.42,-66.69 -31.38,-89.81 -20.97,-23.12 -48.77,-34.69 -83.42,-34.73 -22.05,-0.03 -42.79,5.19 -62.22,15.67 -19.44,10.47 -35.99,24.62 -49.66,42.46 -13.67,17.82 -24.45,38.54 -32.36,62.16 -7.9,23.61 -11.87,48.01 -11.9,73.2 -0.05,36.75 10.42,66.67 31.38,89.79 20.96,23.13 48.78,34.7 83.42,34.75zm-22.41 291.28c-68.24,-0.08 -128.84,-10.39 -181.83,-30.93 -52.99,-20.54 -97.83,-48.93 -134.54,-85.2 -36.69,-36.26 -64.72,-78.81 -84.07,-127.65 -19.36,-48.84 -29.02,-101.07 -28.94,-156.72 0.08,-66.13 13.03,-129.37 38.81,-189.69 25.8,-60.33 61.56,-113.57 107.28,-159.7 45.72,-46.13 100.08,-82.81 163.11,-110.02 63.02,-27.21 131.8,-40.78 206.33,-40.68 67.18,0.08 127.54,10.39 181.04,30.92 53.52,20.54 98.63,48.94 135.32,85.2 36.7,36.27 64.73,78.81 84.09,127.65 19.36,48.84 29,101.07 28.94,156.71 -0.08,66.13 -13.02,129.37 -38.81,189.7 -25.79,60.33 -61.54,113.57 -107.26,159.69 -45.72,46.14 -100.1,82.81 -163.11,110.03 -63.02,27.22 -131.8,40.78 -206.33,40.68zm-3771.32 1286.46c-57.73,-0.07 -111,-8.27 -159.8,-24.61 -48.79,-16.33 -91.28,-40.26 -127.46,-71.8 -36.18,-31.54 -64.48,-70.15 -84.89,-115.85 -20.42,-45.69 -30.58,-97.41 -30.52,-155.14 0.09,-73.48 13.82,-142.75 41.2,-207.8 27.37,-65.05 64.71,-121.69 112.01,-169.93 47.3,-48.22 102.98,-86.22 167.06,-113.96 64.07,-27.73 133.37,-41.57 207.9,-41.47 51.44,0.07 98.41,7.21 140.91,21.43 42.5,14.49 79.74,34.22 111.72,59.72 31.99,25.24 58.19,55.19 78.63,89.59 20.43,34.14 34.82,71.43 43.17,111.59l-283.58 113.02c-15.66,-69.31 -52.37,-103.99 -110.1,-104.07 -25.19,-0.03 -48.29,6.24 -69.3,18.81 -21.02,12.31 -38.88,28.82 -53.6,49.27 -14.72,20.2 -26.04,43.02 -33.94,67.94 -7.91,25.18 -11.87,50.63 -11.9,76.88 -0.04,32.28 9.12,58.01 27.46,76.93 18.35,18.65 41.69,28.13 70.04,28.17 25.2,0.03 48.04,-5.98 68.52,-18.03 20.48,-12.04 41.24,-30.13 62.27,-54.24l240.72 160.91c-43.11,61.88 -96.98,111.16 -161.59,147.81 -64.6,36.67 -146.24,54.94 -244.93,54.82zm714.77 -1170.67l357.45 0.44 -107.57 396.68c28.39,-34.61 64.91,-64.48 109.56,-89.62 44.64,-25.14 93.74,-37.67 147.27,-37.61 78.74,0.1 139.33,23.79 181.78,71.08 42.46,47.29 63.65,111.35 63.54,192.18 -0.05,46.19 -6.94,94.48 -20.65,144.84l-126.56 472.25 -357.45 -0.44 115.48 -428.16c3.16,-11.54 5.54,-23.09 7.12,-34.64 1.6,-11.54 2.39,-21.52 2.41,-29.92 0.03,-23.09 -5.99,-41.46 -18.04,-55.13 -12.05,-13.65 -31.2,-20.5 -57.44,-20.54 -35.7,-0.04 -63.8,11.47 -84.29,34.54 -20.5,23.07 -37.08,58.21 -49.74,105.44l-115.47 428.16 -357.44 -0.44 310.05 -1149.12zm1372.31 647.3c4.21,-11.54 6.32,-24.13 6.34,-37.78 0.03,-24.15 -8.08,-45.42 -24.32,-63.81 -16.25,-18.39 -39.07,-27.61 -68.47,-27.64 -27.3,-0.03 -55.91,9.38 -85.85,28.24 -29.94,18.86 -53.34,52.43 -70.2,100.69l242.5 0.3zm-264.74 157.15c2.06,34.65 14.09,62.48 36.12,83.5 22.01,21.03 52.96,31.56 92.86,31.61 29.39,0.04 58.01,-5.69 85.84,-17.21 27.83,-11.51 56.98,-28.79 87.45,-51.85l165.12 181.28c-49.39,44.04 -104.29,78.34 -164.69,102.94 -60.39,24.59 -128.38,36.84 -203.96,36.74 -65.09,-0.08 -123.86,-9.33 -176.32,-27.77 -52.48,-18.44 -96.79,-44.2 -132.98,-77.32 -36.17,-33.11 -63.94,-72.77 -83.3,-118.98 -19.36,-46.22 -29.02,-97.67 -28.94,-154.36 0.08,-65.09 11.98,-129.11 35.67,-192.06 23.7,-62.96 58.15,-118.82 103.34,-167.57 45.2,-48.76 100.1,-88.06 164.69,-117.9 64.6,-29.84 137.84,-44.7 219.72,-44.61 70.33,0.09 129.63,11.18 177.9,33.28 48.26,22.11 87.33,50.76 117.2,85.96 29.88,35.2 51.08,75.12 63.63,119.75 12.55,44.63 18.78,89.52 18.73,134.66 -0.03,28.34 -2.16,56.16 -6.4,83.44 -4.23,27.29 -10.56,53.01 -18.99,77.14l-552.7 -0.68zm761.19 -512.4l357.44 0.44 -26.89 100.75c28.38,-32.51 64.11,-60.81 107.18,-84.9 43.07,-24.09 91.37,-36.11 144.92,-36.04 59.83,0.07 107.85,13.51 144.03,40.33 36.19,26.81 62.13,60.71 77.82,101.66 44.14,-46.13 92.47,-81.24 144.99,-105.31 52.52,-24.08 109.22,-36.08 170.11,-36.01 87.13,0.11 151.92,23.81 194.38,71.1 42.46,47.29 63.63,110.3 63.54,189.03 -0.05,45.15 -7.46,94.47 -22.22,147.99l-126.56 472.24 -357.44 -0.44 115.48 -428.16c3.16,-11.54 5.54,-23.09 7.13,-34.63 1.58,-11.55 2.38,-21.52 2.39,-29.92 0.03,-23.09 -5.46,-41.46 -16.46,-55.13 -11.01,-13.66 -29.63,-20.5 -55.88,-20.54 -61.93,-0.07 -105.56,46.59 -130.87,139.98l-115.48 428.16 -357.44 -0.43 115.48 -428.17c3.17,-11.54 5.54,-23.09 7.13,-34.63 1.58,-11.55 2.38,-21.52 2.39,-29.92 0.03,-23.1 -5.46,-41.47 -16.47,-55.13 -11,-13.66 -29.63,-20.5 -55.87,-20.54 -61.93,-0.08 -105.56,46.58 -130.87,139.98l-115.47 428.17 -357.44 -0.44 230.96 -859.47zm1778.53 677.72c28.34,0.04 55.91,-13.06 82.71,-39.27 26.81,-26.2 45.48,-59.26 56.02,-99.13l9.5 -36.2c-11.55,-3.17 -22.56,-5.54 -33.06,-7.13 -10.49,-1.59 -21.52,-2.39 -33.06,-2.41 -45.14,-0.05 -79.8,10.14 -103.96,30.58 -24.17,20.44 -36.27,49.03 -36.32,85.77 -0.03,22.05 5.46,38.85 16.47,50.41 11.01,11.56 24.91,17.35 41.71,17.37zm-173.46 202.92c-66.14,-0.09 -120.96,-20.62 -164.48,-61.62 -43.51,-40.99 -65.22,-98.76 -65.13,-173.29 0.11,-91.33 33.8,-164 101.05,-217.97 67.25,-53.98 161.76,-80.89 283.54,-80.74 65.09,0.08 130.15,9.6 195.22,28.58l3.17 -9.45c2.1,-5.24 3.69,-11.8 4.74,-19.68 1.06,-7.87 1.59,-15.48 1.6,-22.83 0.07,-55.63 -43.99,-83.51 -132.17,-83.61 -39.89,-0.05 -81.63,3.31 -125.2,10.08 -43.58,6.77 -80.07,15.91 -109.48,27.43l-46.94 -242.56c47.26,-14.63 102.38,-25.85 165.37,-33.64 63.01,-7.8 126,-11.66 188.98,-11.57 142.77,0.17 247.98,25.49 315.62,75.96 67.65,50.47 101.42,118.76 101.31,204.83 -0.05,38.84 -5.34,78.72 -15.89,119.65l-126.55 472.24 -357.44 -0.44 23.72 -86.57c-38.88,32.49 -76.44,58.17 -112.68,77.02 -36.24,18.85 -79.03,28.25 -128.37,28.19zm1100.68 1.35c-199.45,-0.25 -299.08,-78.57 -298.89,-234.99 0.04,-33.6 5.87,-73.48 17.47,-119.65l66.44 -248.72 -100.78 -0.13 74.34 -275.47 100.78 0.12 58.53 -215.66 357.44 0.44 -58.52 215.67 198.41 0.24 -74.35 275.48 -198.41 -0.24 -49.04 184.17c-7.38,26.24 -11.08,48.28 -11.11,66.12 -0.05,36.75 24.07,55.15 72.37,55.2 14.7,0.02 29.39,-1.27 44.09,-3.88 14.7,-2.59 34.65,-7.57 59.86,-14.89l-77.52 291.22c-30.46,8.37 -60.65,14.62 -90.57,18.78 -29.91,4.16 -60.1,6.23 -90.55,6.19zm503.41 -878.04l357.44 0.44 -230.96 859.48 -357.45 -0.44 230.97 -859.47zm72.78 -289.65l370.04 0.46 -61.69 228.25 -370.05 -0.45 61.69 -228.26zm652.04 1172.35c-57.73,-0.07 -111,-8.27 -159.8,-24.61 -48.79,-16.33 -91.28,-40.26 -127.46,-71.8 -36.18,-31.54 -64.47,-70.15 -84.88,-115.85 -20.43,-45.69 -30.59,-97.4 -30.52,-155.15 0.09,-73.48 13.81,-142.74 41.19,-207.8 27.37,-65.06 64.72,-121.69 112.01,-169.93 47.3,-48.23 102.98,-86.22 167.06,-113.96 64.07,-27.74 133.37,-41.57 207.91,-41.47 51.45,0.06 98.41,7.21 140.91,21.43 42.5,14.49 79.74,34.22 111.72,59.72 31.99,25.23 58.2,55.19 78.63,89.59 20.42,34.14 34.81,71.43 43.16,111.59l-283.57 113.02c-15.66,-69.31 -52.36,-104 -110.11,-104.07 -25.19,-0.03 -48.29,6.24 -69.3,18.81 -21.02,12.31 -38.88,28.82 -53.6,49.27 -14.72,20.2 -26.04,43.02 -33.94,67.94 -7.91,25.18 -11.87,50.64 -11.9,76.88 -0.04,32.28 9.12,58.02 27.46,76.94 18.35,18.65 41.7,28.13 70.04,28.17 25.2,0.03 48.04,-5.98 68.52,-18.03 20.48,-12.05 41.24,-30.13 62.26,-54.25l240.73 160.91c-43.12,61.89 -96.98,111.16 -161.59,147.82 -64.6,36.67 -146.24,54.94 -244.93,54.82zm845.59 -0.54c-98.67,-0.13 -186.58,-14.14 -263.71,-42.05 -77.13,-27.92 -142.42,-61.85 -195.91,-101.81l157.71 -204.5c18.88,15.77 41.17,30.5 66.87,44.17 25.71,13.68 52.2,26.05 79.48,37.11 27.28,11.05 55.09,19.75 83.42,26.08 28.34,6.33 54.57,9.51 78.73,9.54 17.84,0.02 30.71,-2.85 38.59,-8.61 7.88,-5.77 11.83,-12.86 11.83,-21.25 0.01,-7.35 -1.83,-13.92 -5.49,-19.69 -3.67,-5.78 -10.75,-11.56 -21.23,-17.34 -10.49,-5.8 -24.4,-12.37 -41.7,-19.74 -17.31,-7.36 -39.09,-15.8 -65.32,-25.27 -34.63,-12.64 -66.36,-26.33 -95.21,-41.06 -28.85,-14.72 -53.5,-31.82 -73.94,-51.26 -20.45,-19.45 -36.43,-42.04 -47.95,-67.77 -11.52,-25.74 -17.25,-55.4 -17.21,-88.99 0.05,-43.04 9.03,-83.18 26.92,-120.43 17.89,-37.25 43.91,-69.76 78.07,-97.53 34.15,-27.78 76.16,-49.77 126.05,-65.98 49.89,-16.21 107.38,-24.27 172.46,-24.19 87.13,0.11 165.58,11.49 235.37,34.14 69.78,22.65 126.7,50.81 170.74,84.46l-157.72 204.51c-16.78,-11.57 -35.66,-22.87 -56.63,-33.93 -20.98,-11.05 -43.28,-20.79 -66.89,-29.22 -23.61,-8.43 -47.22,-15.27 -70.84,-20.56 -23.61,-5.28 -45.91,-7.93 -66.91,-7.95 -37.79,-0.05 -56.7,9.38 -56.72,28.27 -0.01,6.3 1.56,11.55 4.7,15.75 3.15,4.21 9.18,8.94 18.1,14.2 8.91,5.26 21.5,11.05 37.77,17.37 16.26,6.31 37.51,14.21 63.74,23.7 34.63,12.64 66.63,26.06 96,40.27 29.38,14.21 55.08,31.3 77.09,51.27 22.03,19.98 39.31,43.61 51.89,70.93 12.56,27.31 18.81,59.86 18.77,97.65 -0.04,35.7 -6.91,71.91 -20.61,108.63 -13.69,36.72 -35.78,70.02 -66.26,99.91 -30.48,29.88 -70.67,54.24 -120.56,73.07 -49.89,18.84 -111.04,28.2 -183.48,28.12z"/>
 </g>
</svg>
